# xmcd
#
# Track frame offsets: 
#        150
#        11602
#        23510
#        37200
#        54577
#        66050
#        79210
#        96442
#        108620
#        122632
#        136700
#        149990
#        167952
#        183275
#
# Disc length: 2595 seconds
#
# Revision: 0
# Processed by: cddbd v1.5.2PL0 Copyright (c) Steve Scherf et al.
# Submitted via: ExactAudioCopy v0.95b3
#
DISCID=c80a210e
DTITLE=Merle Haggard - Merle Haggard Love Songs
DYEAR=2004
DGENRE=Country
TTITLE0=This Song Is Mine
TTITLE1=Shopping For Dresses
TTITLE2=Wouldn't That Be Something
TTITLE3=There Won't Be Another Now
TTITLE4=Love Don't Hurt Every Time
TTITLE5=Carryin' Fire
TTITLE6=You Babe
TTITLE7=Ridin' High
TTITLE8=Without You On My Side
TTITLE9=Natural High
TTITLE10=Don't Seem Like We've Been Together All Our Lives
TTITLE11=Love Keeps Hanging On
TTITLE12=My Life's Been A Pleasure
TTITLE13=Thanking The Good Lord
EXTD=
EXTT0=
EXTT1=
EXTT2=
EXTT3=
EXTT4=
EXTT5=
EXTT6=
EXTT7=
EXTT8=
EXTT9=
EXTT10=
EXTT11=
EXTT12=
EXTT13=
PLAYORDER=
